<?xml version="1.0" encoding="UTF-8"?>
<svg width="185px" height="83px" viewBox="0 0 185 83" version="1.1" xmlns="http://www.w3.org/2000/svg" xmlns:xlink="http://www.w3.org/1999/xlink">
    <!-- Generator: Sketch 54.1 (76490) - https://sketchapp.com -->
    <title>Group 11</title>
    <desc>Created with Sketch.</desc>
    <defs>
        <polygon id="path-1" points="0 0.468775329 39.9847534 0.468775329 39.9847534 76.733457 0 76.733457"></polygon>
        <polygon id="path-3" points="0.563545946 0.979453285 47.2067904 0.979453285 47.2067904 75 0.563545946 75"></polygon>
    </defs>
    <g id="Page-1:-Home" stroke="none" stroke-width="1" fill="none" fill-rule="evenodd">
        <g id="Desktop-HD" transform="translate(-36.000000, -27.000000)">
            <g id="Group-2" transform="translate(36.000000, 27.000000)">
                <g id="Group-11">
                    <g id="Group-3">
                        <mask id="mask-2" fill="white">
                            <use xlink:href="#path-1"></use>
                        </mask>
                        <g id="Clip-2"></g>
                        <path d="M32.2520143,36.4827283 C31.6554429,35.9527117 30.8223,35.7756117 30.0598714,36.015595 L9.3123,42.5439117 L38.9583,14.2656617 C39.8711571,13.392995 39.9020143,11.9466783 39.0277286,11.0355117 C38.9853,10.9918783 38.9428714,10.9495283 38.8965857,10.909745 L27.8291571,1.04861167 C26.8841571,0.208028333 25.4364429,0.291445 24.5943,1.23341167 C24.4978714,1.342495 24.4117286,1.45927833 24.3371571,1.58376167 L0.248014286,41.9227783 C-0.183985714,42.6465783 -0.0412714286,43.5757117 0.590014286,44.1365283 L5.28415714,48.3253283 C5.86144286,48.8386617 6.65987143,49.024745 7.40558571,48.8181283 L24.2137286,44.146795 L4.86758571,74.4604117 C3.93415714,75.924695 5.87044286,77.510895 7.12658571,76.309695 L39.4455857,45.4147283 C40.1463,44.7409783 40.1668714,43.627045 39.4905857,42.9276283 C39.4610143,42.8968283 39.4301571,42.8673117 39.3980143,42.837795 L32.2520143,36.4827283 Z" id="Fill-1" fill="#FFFFFF" mask="url(#mask-2)"></path>
                    </g>
                    <g id="Group-6" transform="translate(137.000000, 8.000000)">
                        <mask id="mask-4" fill="white">
                            <use xlink:href="#path-3"></use>
                        </mask>
                        <g id="Clip-5"></g>
                        <path d="M46.1363027,24.159569 L42.9267892,21.3056897 C42.4908973,20.9177586 41.8227892,20.9552586 41.4336,21.3897414 C41.3466811,21.4880172 41.276627,21.6018103 41.2312216,21.7259483 L34.630573,39.4815517 C31.4690595,47.9875862 27.7211676,50.8996552 25.3704649,50.8996552 C24.6193297,50.8996552 23.5503568,50.3552586 23.5503568,48.5410345 C23.5503568,47.9242241 23.6593297,46.6207759 24.4247351,44.5608621 L30.7127351,27.6574138 C31.1719784,26.4237931 30.8256,25.0362931 29.8409514,24.1608621 L26.6301405,21.3056897 C26.1942486,20.9177586 25.5261405,20.9552586 25.1369514,21.3897414 C25.0500324,21.4880172 24.9799784,21.6018103 24.934573,21.7259483 L18.3352216,39.4815517 C15.1750054,47.9875862 11.4258162,50.8996552 9.07770811,50.8996552 C8.32527568,50.8996552 7.2563027,50.3552586 7.2563027,48.5410345 C7.2563027,47.9242241 7.36657297,46.6207759 8.12938378,44.5608621 L21.8612757,7.5987931 C22.3205189,6.36646552 21.9741405,4.97896552 20.9907892,4.10224138 L17.7786811,1.24706897 C17.3440865,0.859137931 16.6759784,0.897931034 16.2867892,1.33112069 C16.198573,1.42939655 16.1298162,1.54448276 16.0831135,1.66732759 L2.02949189,39.4815517 C1.03057297,42.1673276 0.563545946,44.8983621 0.563545946,46.4888793 C0.563545946,51.8681897 4.20505946,54.9561207 8.12808649,54.9561207 C11.0690595,54.9561207 14.3161946,53.0798276 17.2571676,49.2173276 C18.2638703,52.8806897 21.2359784,54.9561207 24.4234378,54.9561207 C26.1994378,54.9561207 28.0908973,54.2643103 29.9603027,52.8768103 L25.3380324,65.3035345 C20.5587892,63.0457759 15.1036541,62.6578448 10.0519784,64.2199138 C9.43576216,64.4074138 9.5628973,65.3035345 10.198573,65.3656034 C16.774573,65.9824138 22.1856,68.8168966 26.1799784,74.1431897 C26.8973838,75.0923276 28.2504649,75.2824138 29.2013838,74.5673276 C29.5308973,74.3203448 29.782573,73.985431 29.9252757,73.6000862 L47.0041946,27.6625862 C47.4660324,26.4276724 47.1222486,25.0375862 46.1363027,24.159569" id="Fill-4" fill="#FFFFFF" mask="url(#mask-4)"></path>
                    </g>
                    <path d="M114.252187,58.8731521 C112.964505,58.8731521 112.00431,57.6108532 112.00431,55.7305812 C112.00431,55.102067 112.200803,53.6052282 112.972364,51.5075457 C117.385591,40.0269501 123.390408,33.7958315 126.083668,33.7958315 C127.862582,33.7958315 128.133742,35.6418448 128.133742,37.8409857 C128.133742,46.8022539 120.118149,58.8665639 114.252187,58.8665639 L114.252187,58.8731521 Z M128.539827,28.438308 C125.363195,28.438308 122.409254,30.2579686 119.768392,33.0355533 L126.510712,14.7467129 C126.974435,13.4896845 126.624678,12.075857 125.631735,11.1838149 L122.381745,8.27314853 C121.942911,7.87785659 121.266977,7.91606815 120.875301,8.35879512 C120.786224,8.45893575 120.716797,8.57488805 120.669639,8.70138147 L106.478935,47.2318045 C105.470273,49.96986 105,52.7513976 105,54.3720946 C105,59.5899482 108.663934,63 113.644369,63 C125.395943,63 136,49.1054883 136,37.8989618 C135.99345,32.410992 133.343419,28.438308 128.539827,28.438308 L128.539827,28.438308 Z" id="Fill-7" fill="#FFFFFF"></path>
                    <path d="M84.2281428,58.8731521 C82.938804,58.8731521 81.9773743,57.6108532 81.9773743,55.7305812 C81.9773743,55.102067 82.1741198,53.6052282 82.9466738,51.5075457 C87.3655777,40.0269501 93.3781203,33.7958315 96.0748453,33.7958315 C97.8573595,33.7958315 98.1288683,35.6418448 98.1288683,37.8409857 C98.126245,46.8022539 90.10821,58.8665639 84.2268312,58.8665639 L84.2281428,58.8731521 Z M89.7527565,33.0355533 L96.5024388,14.7467129 C96.9667582,13.4896845 96.6178629,12.075857 95.6223306,11.1838149 L92.3694717,8.27314853 C91.9287617,7.87785659 91.2532688,7.91606815 90.8597778,8.35879512 C90.7705865,8.45893575 90.7010698,8.57488805 90.6551625,8.70138147 L76.4448908,47.2318045 C73.2444973,55.8979215 69.4578022,58.8665639 67.0811165,58.8665639 C66.3203673,58.8665639 65.2408903,58.3131552 65.2408903,56.463189 C65.2408903,55.8346748 65.3510678,54.5064938 66.1249334,52.4074936 L72.4771898,35.1833062 C72.9428208,33.9275954 72.5926138,32.5124503 71.5983932,31.6190905 L68.3507808,28.7097418 C67.9113825,28.3157675 67.234578,28.3539791 66.8423987,28.7953884 C66.7532074,28.8968467 66.6836906,29.0114814 66.6364717,29.1392924 L59.9628643,47.2318045 C56.7677173,55.8992391 52.9770873,58.8665639 50.6017133,58.8665639 C49.8409641,58.8665639 48.7601754,58.3131552 48.7601754,56.463189 C48.7601754,55.8346748 48.8703529,54.5064938 49.6429069,52.4074936 L55.9951633,35.1833062 C56.4594827,33.9275954 56.1092757,32.5137679 55.1124319,31.6204082 L51.8674427,28.7110595 C51.4280444,28.3170852 50.7525515,28.3552967 50.3590605,28.7967061 C50.2698692,28.8968467 50.2003525,29.0141166 50.1531336,29.1406101 L43.4821494,47.2318045 C42.4735008,49.96986 42,52.7513976 42,54.3720946 C42,59.8547938 45.6804525,63 49.6468418,63 C52.6203222,63 55.9033488,61.0881046 58.8768291,57.1536322 C59.8946592,60.8865058 62.8996188,63 66.1209985,63 C69.1036603,63 72.4024265,61.0775635 75.3745952,57.1193736 C76.4396442,60.7389301 79.5744559,63 83.6077387,63 C95.3770546,63 106,49.1054883 106,37.8989618 C105.997377,32.410992 103.343936,28.438308 98.5354757,28.438308 C95.3534451,28.438308 92.3957044,30.2579686 89.7527565,33.0355533 Z" id="Fill-9" style="fill:white"></path>
                </g>
            </g>
        </g>
    </g>
</svg>